<?xml version="1.0" standalone="no"?>
<!DOCTYPE svg PUBLIC "-//W3C//DTD SVG 20010904//EN"
 "http://www.w3.org/TR/2001/REC-SVG-20010904/DTD/svg10.dtd">
<svg version="1.0" xmlns="http://www.w3.org/2000/svg"
 width="697.000000pt" height="111.000000pt" viewBox="0 0 697.000000 111.000000"
 preserveAspectRatio="xMidYMid meet">

<g transform="translate(0.000000,111.000000) scale(0.100000,-0.100000)"
fill="#00ff00" stroke="none">
<path d="M0 555 l0 -555 553 2 552 3 3 158 3 157 -356 0 -355 0 0 240 0 240
355 0 355 0 0 155 0 155 -555 0 -555 0 0 -555z"/>
<path d="M1190 555 l0 -555 198 2 197 3 3 120 3 121 274 274 275 275 0 157 0
158 -82 0 -83 0 -192 -192 -193 -193 0 193 0 192 -200 0 -200 0 0 -555z"/>
<path d="M2220 555 l0 -555 555 0 555 0 0 160 0 160 -355 0 -355 0 0 40 0 40
355 0 355 0 0 160 0 160 -355 0 -355 0 0 40 0 40 355 0 355 0 0 155 0 155
-555 0 -555 0 0 -555z"/>
<path d="M3410 555 l0 -555 277 0 276 0 118 117 118 116 3 -114 3 -114 195 0
195 0 3 553 2 552 -595 0 -595 0 0 -555z m790 202 c0 -42 -3 -45 -195 -237
l-195 -195 0 238 0 237 195 0 195 0 0 -43z"/>
<path d="M4680 955 l0 -155 175 0 175 0 2 -397 3 -398 198 -3 197 -2 0 400 0
400 180 0 180 0 0 155 0 155 -555 0 -555 0 0 -155z"/>
<path d="M5870 555 l0 -555 550 0 550 0 0 160 0 160 -355 0 -355 0 0 40 0 40
355 0 355 0 0 160 0 160 -355 0 -355 0 0 40 0 40 355 0 355 0 0 155 0 155
-550 0 -550 0 0 -555z"/>
</g>
</svg>
